<svg xmlns="http://www.w3.org/2000/svg" viewBox="0 0 48 48">
  <title>modro</title>
  <!-- tvár tlačiarenskej formy: biely kruh, z ktorého je vyrezaná osemlistá ružica -->
  <circle cx="24" cy="24" r="22" fill="#EDEFF2"/>
  <g fill="#17234A">
    <ellipse cx="24" cy="13.2" rx="3.4" ry="6.4"/>
    <ellipse cx="24" cy="13.2" rx="3.4" ry="6.4" transform="rotate(45 24 24)"/>
    <ellipse cx="24" cy="13.2" rx="3.4" ry="6.4" transform="rotate(90 24 24)"/>
    <ellipse cx="24" cy="13.2" rx="3.4" ry="6.4" transform="rotate(135 24 24)"/>
    <ellipse cx="24" cy="13.2" rx="3.4" ry="6.4" transform="rotate(180 24 24)"/>
    <ellipse cx="24" cy="13.2" rx="3.4" ry="6.4" transform="rotate(225 24 24)"/>
    <ellipse cx="24" cy="13.2" rx="3.4" ry="6.4" transform="rotate(270 24 24)"/>
    <ellipse cx="24" cy="13.2" rx="3.4" ry="6.4" transform="rotate(315 24 24)"/>
    <circle cx="24" cy="24" r="3.6"/>
  </g>
  <circle cx="24" cy="24" r="1.5" fill="#EDEFF2"/>
</svg>
